<svg xmlns="http://www.w3.org/2000/svg" xmlns:xlink="http://www.w3.org/1999/xlink" width="67" height="37" viewBox="0 0 67 37">
  <defs>
    <clipPath id="clip-path">
      <rect id="Прямоугольник_1179" data-name="Прямоугольник 1179" width="67" height="37" transform="translate(101)" fill="#fff"/>
    </clipPath>
  </defs>
  <g id="Сгруппировать_403" data-name="Сгруппировать 403" transform="translate(-101)" clip-path="url(#clip-path)">
    <path id="Контур_1865" data-name="Контур 1865" d="M101.594,34.243a1.518,1.518,0,0,1,.434-.306,1.279,1.279,0,0,1,.527-.111h.809a.042.042,0,0,0,.046-.048c0-.032-.021-.048-.057-.048h-.793a1.384,1.384,0,0,0-.567.116,1.461,1.461,0,0,0-.466.322,1.561,1.561,0,0,0-.43,1.072,1.473,1.473,0,0,0,.118.586,1.519,1.519,0,0,0,.312.475,1.46,1.46,0,0,0,.466.322,1.384,1.384,0,0,0,.567.116h.824a.05.05,0,0,0,.031-.048c0-.032-.021-.048-.056-.048h-.8a1.253,1.253,0,0,1-.526-.111,1.328,1.328,0,0,1-.435-.306,1.506,1.506,0,0,1-.3-.449,1.437,1.437,0,0,1,0-1.093A1.441,1.441,0,0,1,101.594,34.243Zm6.1-.217a1.033,1.033,0,0,0-.317-.217.97.97,0,0,0-.389-.079H106V36.7a.042.042,0,0,0,.047.048c.03,0,.046-.021.046-.063v-.919h.562l.931.956a.042.042,0,0,0,.041.021c.031,0,.046-.016.046-.048,0-.016-.01-.027-.025-.042l-.86-.887h.2a.968.968,0,0,0,.389-.079,1.031,1.031,0,0,0,.317-.216.936.936,0,0,0,.21-.327,1.1,1.1,0,0,0,0-.8A.921.921,0,0,0,107.7,34.026Zm.123,1.083a1.028,1.028,0,0,1-.19.3.845.845,0,0,1-.286.2.855.855,0,0,1-.348.074h-.9V33.826h.9a.878.878,0,0,1,.348.074.91.91,0,0,1,.286.2.961.961,0,0,1,.261.655A1.01,1.01,0,0,1,107.82,35.109Zm2.849-1.283h1.586c.031,0,.046-.016.046-.048s-.02-.048-.061-.048h-1.673v3.021h1.688c.031,0,.046-.016.046-.048s-.02-.048-.056-.048h-1.586V35.267h.292c.031,0,.046-.016.046-.048s-.021-.048-.062-.048h-.281V34.5C110.669,34.28,110.669,34.058,110.669,33.826Zm4.185,2.921h1.474a.042.042,0,0,0,.046-.048c0-.032-.021-.048-.056-.048h-1.31l1.356-2.72,1.366,2.8a.041.041,0,0,0,.041.021.04.04,0,0,0,.046-.042v-.021l-1.459-2.973Zm7.874-3.016h-2.256c-.031,0-.041.016-.041.048s.015.048.041.048h1.12V36.7a.042.042,0,0,0,.046.048c.031,0,.046-.021.046-.058V33.826h1.044c.031,0,.046-.016.046-.048a.08.08,0,0,0-.01-.037A.055.055,0,0,0,122.728,33.73Zm2.66,0a.04.04,0,0,0-.046.042V36.7a.069.069,0,0,0,.011.037.044.044,0,0,0,.035.016.045.045,0,0,0,.036-.016.05.05,0,0,0,.016-.037V33.768A.051.051,0,0,0,125.388,33.73Zm5.495,0a.054.054,0,0,0-.046.026c-.23.481-.46.951-.7,1.415s-.46.935-.7,1.41l-1.366-2.82c-.01-.021-.02-.032-.041-.032a.042.042,0,0,0-.046.048.045.045,0,0,0,.011.032l1.442,3,1.479-3a.017.017,0,0,0,.005-.011v-.021C130.929,33.746,130.914,33.73,130.883,33.73Zm2.752.1h1.586c.031,0,.046-.016.046-.048s-.02-.048-.061-.048h-1.668v3.021h1.689a.042.042,0,0,0,.046-.048c0-.032-.021-.048-.057-.048H133.63V35.267h.292c.031,0,.046-.016.046-.048s-.02-.048-.061-.048h-.282V34.5C133.635,34.28,133.635,34.058,133.635,33.826Zm7.275,2.921h1.474c.031,0,.046-.016.046-.048s-.02-.048-.056-.048h-1.31l1.356-2.72,1.366,2.8a.041.041,0,0,0,.041.021.04.04,0,0,0,.046-.042v-.021l-1.458-2.973Zm7.137-1.991c0,.032.021.048.062.048h.644v1.848h-.8a1.261,1.261,0,0,1-.527-.111,1.351,1.351,0,0,1-.435-.306,1.523,1.523,0,0,1-.3-.449,1.426,1.426,0,0,1,.3-1.542,1.537,1.537,0,0,1,.435-.306,1.279,1.279,0,0,1,.527-.111h.113c.031,0,.046-.016.046-.048s-.021-.048-.061-.048h-.1a1.4,1.4,0,0,0-.573.116,1.456,1.456,0,0,0-.465.322,1.5,1.5,0,0,0-.312.481,1.514,1.514,0,0,0-.113.591,1.471,1.471,0,0,0,.113.586,1.421,1.421,0,0,0,.312.475,1.456,1.456,0,0,0,.465.322,1.4,1.4,0,0,0,.573.116h.9V34.7h-.763A.052.052,0,0,0,148.047,34.755Zm3.5-.93h1.586a.042.042,0,0,0,.046-.048c0-.032-.021-.048-.062-.048h-1.673v3.021h1.689a.042.042,0,0,0,.046-.048c0-.032-.021-.048-.057-.048h-1.586V35.267h.292c.031,0,.046-.016.046-.048s-.02-.048-.061-.048h-.282V34.5C151.537,34.28,151.542,34.058,151.542,33.826Zm6.635-.1c-.03,0-.046.021-.046.058v2.73l-2.384-2.8V36.7c0,.032.015.048.046.048s.046-.021.046-.058V33.979l2.384,2.8V33.768C158.223,33.741,158.208,33.725,158.177,33.725Zm3.147.518a1.518,1.518,0,0,1,.434-.306,1.279,1.279,0,0,1,.527-.111h.809a.042.042,0,0,0,.046-.048c0-.032-.021-.048-.056-.048h-.8a1.388,1.388,0,0,0-.568.116,1.456,1.456,0,0,0-.465.322,1.561,1.561,0,0,0-.43,1.072,1.473,1.473,0,0,0,.118.586,1.519,1.519,0,0,0,.312.475,1.456,1.456,0,0,0,.465.322,1.388,1.388,0,0,0,.568.116h.824a.052.052,0,0,0,.031-.048c0-.032-.021-.048-.057-.048h-.8a1.261,1.261,0,0,1-.527-.111,1.349,1.349,0,0,1-.435-.306,1.5,1.5,0,0,1-.3-.449,1.437,1.437,0,0,1,0-1.093A1.668,1.668,0,0,1,161.324,34.243Zm6.543-.512h-.015c-.005,0-.011.005-.016.016-.163.238-.332.475-.5.708s-.333.465-.5.708c-.128-.174-.241-.333-.338-.465s-.184-.248-.256-.349-.133-.185-.184-.254-.087-.127-.123-.169c-.071-.106-.117-.164-.128-.18a.035.035,0,0,0-.03-.011c-.036,0-.052.016-.052.047a.046.046,0,0,0,.011.032l1.043,1.447V36.7c0,.032.016.048.051.048s.041-.021.041-.058V35.262L167.9,33.82a.062.062,0,0,0,.015-.042C167.923,33.746,167.908,33.73,167.867,33.73Z" fill="#fff"/>
    <path id="Контур_1866" data-name="Контур 1866" d="M158.3,37l-2.384-2.8v2.514a.126.126,0,0,1-.123.132.117.117,0,0,1-.122-.127V33.5l2.384,2.8V33.784a.126.126,0,0,1,.122-.137.12.12,0,0,1,.123.127Zm-.123-3.2v0Zm-28.736,3.185-1.515-3.142a.153.153,0,0,1-.015-.069.117.117,0,0,1,.123-.127.121.121,0,0,1,.112.079l1.3,2.678c.209-.428.419-.85.629-1.273.23-.465.465-.94.691-1.415a.128.128,0,0,1,.117-.074.117.117,0,0,1,.123.127.12.12,0,0,1-.01.058l-.005.01Zm-23.4-.153a.117.117,0,0,1-.123-.127V33.652H107a1.029,1.029,0,0,1,.42.084,1.129,1.129,0,0,1,.343.238,1.115,1.115,0,0,1,.312.787,1.128,1.128,0,0,1-.082.433,1.159,1.159,0,0,1-.23.354,1.073,1.073,0,0,1-.343.238,1.012,1.012,0,0,1-.42.084h-.02l.726.75a.126.126,0,0,1,.046.1.117.117,0,0,1-.122.127.113.113,0,0,1-.1-.048l-.9-.924h-.45v.84A.131.131,0,0,1,106.045,36.836Zm.128-1.236H107a.75.75,0,0,0,.318-.069.759.759,0,0,0,.26-.185.92.92,0,0,0,.174-.269.867.867,0,0,0,.067-.327.886.886,0,0,0-.241-.6.782.782,0,0,0-.26-.185A.8.8,0,0,0,107,33.9h-.823Zm60.666,1.225a.121.121,0,0,1-.128-.127V35.283l-1.023-1.426a.12.12,0,0,1-.031-.084.119.119,0,0,1,.128-.127.111.111,0,0,1,.087.037l.01.011c0,.01.031.042.123.174a2.081,2.081,0,0,0,.123.169c.051.069.107.153.179.248s.158.216.256.348q.123.166.276.38c.148-.211.3-.417.44-.618.169-.232.332-.47.5-.7l.011-.011a.114.114,0,0,1,.046-.032.1.1,0,0,1,.041-.005.127.127,0,0,1,.138.127.113.113,0,0,1-.036.09l-1.008,1.415v1.4C166.962,36.783,166.9,36.826,166.839,36.826Zm-3.714,0h-.839a1.452,1.452,0,0,1-.6-.127,1.593,1.593,0,0,1-.486-.338,1.671,1.671,0,0,1-.333-.5,1.579,1.579,0,0,1-.122-.618,1.605,1.605,0,0,1,.122-.623,1.861,1.861,0,0,1,.328-.507,1.609,1.609,0,0,1,.486-.343,1.435,1.435,0,0,1,.6-.127h.808a.127.127,0,0,1,.128.127.117.117,0,0,1-.123.127h-.808a1.219,1.219,0,0,0-.5.106,1.291,1.291,0,0,0-.409.285,1.342,1.342,0,0,0-.276.423,1.351,1.351,0,0,0,0,1.03,1.457,1.457,0,0,0,.276.423,1.32,1.32,0,0,0,.409.285,1.221,1.221,0,0,0,.5.106h.808a.127.127,0,0,1,.128.127.121.121,0,0,1-.082.121Zm-10,0h-1.765V33.646h1.75a.127.127,0,0,1,.138.127.117.117,0,0,1-.123.127h-1.509v1.183h.2a.127.127,0,0,1,.138.127.117.117,0,0,1-.122.127h-.215v1.231h1.509a.125.125,0,0,1,.133.127A.14.14,0,0,1,153.128,36.826Zm-4.2,0h-.972a1.458,1.458,0,0,1-.6-.127,1.593,1.593,0,0,1-.486-.338,1.61,1.61,0,0,1-.45-1.12,1.605,1.605,0,0,1,.122-.623,1.683,1.683,0,0,1,.328-.507,1.609,1.609,0,0,1,.486-.343,1.442,1.442,0,0,1,.6-.127h.1a.127.127,0,0,1,.138.127.117.117,0,0,1-.123.127h-.112a1.219,1.219,0,0,0-.5.106,1.291,1.291,0,0,0-.409.285,1.342,1.342,0,0,0-.276.423,1.351,1.351,0,0,0,0,1.03,1.457,1.457,0,0,0,.276.423,1.321,1.321,0,0,0,.409.285,1.227,1.227,0,0,0,.5.106h.721V34.866h-.568a.127.127,0,0,1-.138-.127.125.125,0,0,1,.1-.127h.855v2.213Zm-.834-2.07h0Zm-.011,0h0Zm-4.251,2.07a.111.111,0,0,1-.107-.058l-.006-.005-1.3-2.662-1.228,2.466h1.182a.125.125,0,0,1,.133.127.117.117,0,0,1-.123.127h-1.6l1.637-3.29,1.535,3.127v.037A.114.114,0,0,1,143.832,36.826Zm-8.6,0h-1.765V33.646h1.749a.128.128,0,0,1,.139.127.118.118,0,0,1-.123.127h-1.509v1.183h.2a.127.127,0,0,1,.138.127.117.117,0,0,1-.122.127h-.215v1.231h1.509a.125.125,0,0,1,.133.127A.144.144,0,0,1,135.227,36.826Zm-9.838,0a.106.106,0,0,1-.093-.042.124.124,0,0,1-.03-.084V33.773a.116.116,0,0,1,.123-.121.122.122,0,0,1,.122.106V36.7a.112.112,0,0,1-.035.09A.12.12,0,0,1,125.389,36.826Zm-3.756,0a.117.117,0,0,1-.122-.127V33.9h-1.044a.119.119,0,0,1-.118-.127.114.114,0,0,1,.118-.127h2.256a.125.125,0,0,1,.092.042.129.129,0,0,1,.031.084.117.117,0,0,1-.123.127h-.967v2.783A.123.123,0,0,1,121.633,36.826Zm-3.852,0a.111.111,0,0,1-.107-.058l-.006-.005-1.3-2.662-1.228,2.466h1.182a.125.125,0,0,1,.133.127.117.117,0,0,1-.123.127h-1.6l1.637-3.29,1.535,3.127v.037A.119.119,0,0,1,117.781,36.826Zm-5.52,0H110.5V33.646h1.749a.128.128,0,0,1,.139.127.118.118,0,0,1-.123.127h-1.509v1.183h.2a.127.127,0,0,1,.138.127.117.117,0,0,1-.122.127h-.215v1.231h1.509a.125.125,0,0,1,.133.127A.144.144,0,0,1,112.261,36.826Zm-8.861,0h-.839a1.452,1.452,0,0,1-.6-.127,1.593,1.593,0,0,1-.486-.338,1.65,1.65,0,0,1-.332-.5,1.562,1.562,0,0,1-.123-.618,1.588,1.588,0,0,1,.123-.623,1.835,1.835,0,0,1,.327-.507,1.609,1.609,0,0,1,.486-.343,1.436,1.436,0,0,1,.6-.127h.808a.127.127,0,0,1,.128.127.117.117,0,0,1-.123.127h-.808a1.219,1.219,0,0,0-.5.106,1.291,1.291,0,0,0-.409.285,1.342,1.342,0,0,0-.276.423,1.351,1.351,0,0,0,0,1.03,1.457,1.457,0,0,0,.276.423,1.321,1.321,0,0,0,.409.285,1.227,1.227,0,0,0,.5.106h.808a.127.127,0,0,1,.128.127.121.121,0,0,1-.082.121Z"/>
    <path id="Контур_1867" data-name="Контур 1867" d="M133.385,25.033,147.408,0h-3.663c-2.522,4.5-6.922,12.368-10.427,18.637l-1.2-2.176L141.325,0h-3.663c-2.2,3.924-4.845,8.666-7.357,13.161l-1.2-2.181c2.1-3.75,4.256-7.61,6.139-10.974h-3.663c-1.361,2.435-2.829,5.059-4.293,7.674l-1.171-2.134H111.386c-3.029,0-4.5.158-4.5.158a5.667,5.667,0,0,1,4.5-2.324H124.9L123.071.106H111.59a9.619,9.619,0,0,0-9.464,9.77A9.665,9.665,0,0,0,111.59,19.7h6.037a1.084,1.084,0,0,1,0,2.165H105.845l-1.832,3.274h13.118c.573-.005,4.743-.2,4.743-5.228a2.241,2.241,0,0,1,1.739,2.482s0,4.827-6.482,4.859H102.837L101,30.525h16.678a9.5,9.5,0,0,0,8.928-6.675l3.709,6.675,1.842-3.274L121.858,8.82h2.42ZM111.59,8.82h6.61l1.32,2.361a9.192,9.192,0,0,0-1.842-.2H111.59a1.084,1.084,0,0,1,0-2.165Zm10.846,7.763s-1.586-.158-4.348-.158H112.04c-6.84-.032-6.282-4.859-6.282-4.859A2.241,2.241,0,0,1,107.5,9.084c0,5,3.914,5.181,4.523,5.176h6.063A4.938,4.938,0,0,1,122.436,16.583Z" fill="#ff9600" fill-rule="evenodd"/>
    <path id="Контур_1868" data-name="Контур 1868" d="M150.585.158,150.523,0,133.17,30.525c.322.127,9.337,0,9.337,0l4.885-8.74c1.663,2.973,3.382,6.057,4.891,8.761h15.574Zm-1.361,18.352,1.228-2.192c1.4,2.5,2.88,5.218,4.256,7.679h3.664L150.411,9.844l-9.746,17.428c-.9,0-1.714-.005-2.42-.005l12.2-21.817c.378.676,9.741,17.465,12.176,21.827h-8.508Z" fill-rule="evenodd"/>
  </g>
</svg>
